<svg width="723" height="639" viewBox="0 0 723 639" fill="none" xmlns="http://www.w3.org/2000/svg">
<rect width="723" height="639" fill="white"/>
<path d="M362.005 630.996C190.517 630.996 51 491.479 51 319.998C51 148.511 190.517 9 362.005 9C533.493 9 673.003 148.517 673.003 319.998C673.01 491.486 533.493 630.996 362.005 630.996ZM362.005 42.4669C208.97 42.4669 84.4669 166.97 84.4669 319.998C84.4669 473.033 208.97 597.529 362.005 597.529C515.04 597.529 639.536 473.026 639.536 319.998C639.543 166.964 515.04 42.4669 362.005 42.4669Z" fill="white"/>
<path d="M537.83 343.677V459.798C537.83 462.668 535.503 464.995 532.633 464.995H472.681C469.812 464.995 467.485 462.668 467.485 459.798V351.812C467.485 323.391 457.331 303.984 431.862 303.984C412.427 303.984 400.88 317.048 395.78 329.7C393.926 334.224 393.452 340.498 393.452 346.842V459.798C393.452 462.668 391.125 464.995 388.256 464.995H328.324C325.448 464.995 323.114 462.675 323.127 459.798C323.258 431.041 323.869 291.496 323.251 258.702C323.196 255.798 325.537 253.443 328.448 253.443H388.263C391.132 253.443 393.459 255.771 393.459 258.64V283.423C393.315 283.656 393.116 283.89 392.992 284.116H393.459V283.423C402.809 269.041 419.478 248.473 456.851 248.473C503.135 248.473 537.83 278.713 537.83 343.677ZM219.102 465.002H279.034C281.903 465.002 284.23 462.675 284.23 459.805V258.64C284.23 255.771 281.903 253.443 279.034 253.443H219.102C216.233 253.443 213.905 255.771 213.905 258.64V459.805C213.905 462.675 216.233 465.002 219.102 465.002Z" fill="white"/>
<path d="M246.961 226.529C267.754 226.529 284.609 209.674 284.609 188.882C284.609 168.09 267.754 151.234 246.961 151.234C226.169 151.234 209.314 168.09 209.314 188.882C209.314 209.674 226.169 226.529 246.961 226.529Z" fill="white"/>
</svg>
